<?xml version="1.0" encoding="UTF-8"?>
<!-- Generator: visioncortex VTracer 0.6.1 -->
<svg version="1.1" xmlns="http://www.w3.org/2000/svg" width="1280" height="1280">
<path d="M0 0 C0.99 0.495 0.99 0.495 2 1 C4.69169257 1.09504612 7.35733177 1.12827368 10.04919434 1.1174612 C10.89508967 1.11801586 11.74098501 1.11857051 12.61251354 1.11914197 C15.47802638 1.11978934 18.34347932 1.11323862 21.20898438 1.10679626 C23.27168512 1.10580118 25.33438612 1.10525069 27.3970871 1.10510927 C33.08950402 1.1034564 38.78189831 1.09557081 44.47430801 1.08674753 C50.60388202 1.07834699 56.73345859 1.07572313 62.86303711 1.07249451 C73.49145955 1.06618496 84.11987375 1.05644227 94.74829102 1.04459953 C110.82522996 1.02679033 126.90216785 1.01737163 142.97911441 1.00970889 C149.42597708 1.0065991 155.87283962 1.00321721 162.31970215 0.99983311 C163.03598835 0.99945834 163.75227454 0.99908357 164.49026638 0.99869744 C181.54819987 0.98972079 198.60613126 0.97806025 215.6640625 0.96557617 C216.41065656 0.96503177 217.15725061 0.96448736 217.92646873 0.96392646 C235.35039472 0.95119846 252.77431909 0.93718649 270.19824219 0.92095947 C270.94786549 0.92026228 271.69748879 0.9195651 272.46982795 0.91884678 C276.24979199 0.91532915 280.02975601 0.91180233 283.80972004 0.9082749 C284.9303066 0.90722972 284.9303066 0.90722972 286.07353127 0.90616344 C287.58140282 0.90475667 289.08927437 0.90334841 290.59714592 0.90193863 C315.48556314 0.87871132 340.37397767 0.86224334 365.26240423 0.85326203 C368.7739759 0.85198534 372.28554753 0.85061657 375.79711914 0.84918404 C376.48826653 0.84890269 377.17941393 0.84862134 377.89150518 0.84833147 C389.03598996 0.84356599 400.18045511 0.83139143 411.32493019 0.81629714 C422.51559365 0.80125512 433.70624408 0.79337493 444.89691925 0.79251044 C450.96489949 0.7918037 457.03283156 0.78774383 463.10079956 0.7750473 C468.64718069 0.76350257 474.19348651 0.76102181 479.73987675 0.76598949 C481.75464687 0.76614176 483.76942055 0.76285072 485.78417873 0.75591242 C488.50648297 0.7470162 491.22850121 0.75023511 493.95080566 0.75669765 C494.74715266 0.75115778 495.54349966 0.74561791 496.36397839 0.73991016 C501.77171289 0.77171289 501.77171289 0.77171289 504 3 C504.19604948 5.47024886 504.26595749 7.82822453 504.24888897 10.29956055 C504.25149625 11.06441395 504.25410354 11.82926735 504.25678983 12.61729813 C504.26313874 15.20718661 504.25509666 17.79683711 504.24723816 20.38671875 C504.24882484 22.25143016 504.25128703 24.116141 504.25455457 25.98085022 C504.26099661 31.12600939 504.25487796 36.27109044 504.24679029 41.41624451 C504.24023494 46.95686097 504.24515703 52.49746838 504.24867249 58.03808594 C504.25372441 68.90047638 504.24806042 79.76283648 504.23882218 90.62522316 C504.22845944 103.26211845 504.22850781 115.8990071 504.22899476 128.53590584 C504.22951102 151.75768649 504.21946145 174.97945027 504.20449232 198.20122457 C504.19086774 219.41540202 504.18463101 240.62956821 504.18530273 261.84375 C504.18534315 263.20583661 504.18538351 264.56792323 504.18542381 265.93000984 C504.18544416 266.60338849 504.18546452 267.27676713 504.18548548 267.97055119 C504.18558627 271.36000613 504.18567686 274.74946107 504.18575573 278.13891602 C504.18577244 278.80755334 504.18578916 279.47619066 504.18580638 280.16508973 C504.18624956 301.67179711 504.17913187 323.17850254 504.17139288 344.68520832 C504.16837101 353.50384348 504.16731267 362.32247766 504.16686058 371.14111328 C504.1661798 381.88100287 504.16173404 392.62088349 504.15252777 403.36076927 C504.14789749 408.84545576 504.14486879 414.33013076 504.14612198 419.81481934 C504.14721199 424.82826688 504.14372962 429.84168893 504.13647345 434.85513115 C504.13465082 436.67608997 504.13453878 438.4970514 504.13624074 440.31801033 C504.13828735 442.77885087 504.13427466 445.23960636 504.12863445 447.70043945 C504.13171743 448.77944708 504.13171743 448.77944708 504.13486269 449.88025284 C504.11415493 454.77169014 504.11415493 454.77169014 503 457 C437.99 457 372.98 457 306 457 C304.94431376 453.83294128 304.8767891 451.61225746 304.87974548 448.28633118 C304.87768349 446.50055161 304.87768349 446.50055161 304.87557983 444.67869568 C304.87917511 443.37102737 304.88277039 442.06335907 304.88647461 440.71606445 C304.88675665 439.32647707 304.88659841 437.93688954 304.8860321 436.54730225 C304.8857448 432.77279387 304.89163074 428.99831716 304.89860606 425.22381616 C304.90485072 421.28000565 304.90544428 417.33619445 304.90663147 413.39237976 C304.9097415 405.92324515 304.91795047 398.45412515 304.92798096 390.98499697 C304.93915228 382.48206822 304.94465512 373.97913878 304.94967639 365.47620451 C304.96013335 347.98412789 304.97772645 330.49206549 305 313 C303.20591668 313.6180287 301.41479522 314.24466081 299.625 314.875 C298.62726563 315.22304688 297.62953125 315.57109375 296.6015625 315.9296875 C293.89557882 316.84782502 293.89557882 316.84782502 292 319 C290.7625 319.433125 289.525 319.86625 288.25 320.3125 C285.28849465 321.36214747 283.16774718 322.48254145 280.8125 324.5625 C276.79444354 328.0448156 274.30049005 329 269 329 C268.67 329.99 268.34 330.98 268 332 C264.99208089 334.04108797 262.57804656 334.19878036 259 334 C259 334.99 259 335.98 259 337 C257.90171875 337.4021875 257.90171875 337.4021875 256.78125 337.8125 C254.06681727 338.97147128 251.90689599 340.30500282 249.5 342 C244.98640405 345.1785887 241.61026308 347 236 347 C235.67 347.99 235.34 348.98 235 350 C233.68 349.67 232.36 349.34 231 349 C231 349.99 231 350.98 231 352 C229.35 352 227.7 352 226 352 C225.79375 352.639375 225.5875 353.27875 225.375 353.9375 C224 356 224 356 220.875 356.75 C219.92625 356.8325 218.9775 356.915 218 357 C217.67 357.99 217.34 358.98 217 360 C215.68 360 214.36 360 213 360 C213 360.66 213 361.32 213 362 C211.35 362 209.7 362 208 362 C208 362.99 208 363.98 208 365 C207.09507812 365.25523437 207.09507812 365.25523437 206.171875 365.515625 C201.39367367 366.96449895 198.34558964 368.13970426 195 372 C192 373 192 373 190 373 C189.443125 373.598125 188.88625 374.19625 188.3125 374.8125 C184.76062445 378.17238228 180.95076566 379.87548304 176.0625 380.1875 C175.381875 380.125625 174.70125 380.06375 174 380 C174 380.99 174 381.98 174 383 C173.38125 383.103125 172.7625 383.20625 172.125 383.3125 C169.63473516 383.87525373 169.63473516 383.87525373 168 387 C166 387.75 166 387.75 164 388 C163.34 387.67 162.68 387.34 162 387 C162 387.99 162 388.98 162 390 C160.7934375 390.4640625 160.7934375 390.4640625 159.5625 390.9375 C157.10919595 391.76335345 157.10919595 391.76335345 156 393 C154.33382885 393.04063832 152.66611905 393.042721 151 393 C151 393.99 151 394.98 151 396 C150.09507812 396.25523437 150.09507812 396.25523437 149.171875 396.515625 C144.28762061 397.99665698 141.57973324 399.29241915 138 403 C135.25 403.25 135.25 403.25 133 403 C132.67 403.99 132.34 404.98 132 406 C130.68 406 129.36 406 128 406 C127.67 406.99 127.34 407.98 127 409 C124.39757586 410.64820195 123.13751221 411 120 411 C119.67 411.66 119.34 412.32 119 413 C116.5 414 116.5 414 113 414 C110.62376669 412.68474171 108.5014238 411.15976645 106.30859375 409.55859375 C104.11094837 408.07490423 102.1823999 407.17200928 99.6875 406.3125 C96 405 96 405 94.2421875 403.66796875 C90.57746164 400.94177024 86.46110604 399.03217489 82.40039062 396.9609375 C79.15395464 395.2716302 76.46269649 393.71717513 74 391 C71.89667109 390.28552357 71.89667109 390.28552357 70 390 C70 389.34 70 388.68 70 388 C69.278125 387.87625 68.55625 387.7525 67.8125 387.625 C65.04278106 387.0095069 62.6029646 386.11555626 60 385 C60 384.34 60 383.68 60 383 C59.071875 382.87625 58.14375 382.7525 57.1875 382.625 C53.06646208 381.81695335 50.19883845 379.64731458 47 377 C47 376.34 47 375.68 47 375 C45.824375 375.061875 45.824375 375.061875 44.625 375.125 C42 375 42 375 40 373 C38.68596724 372.29605388 37.3479743 371.63654342 36 371 C34 370 32 369 30 368 C29.17371094 367.60425781 28.34742188 367.20851563 27.49609375 366.80078125 C26.61050781 366.37152344 25.72492188 365.94226563 24.8125 365.5 C23.97332031 365.0978125 23.13414062 364.695625 22.26953125 364.28125 C20 363 20 363 18.38671875 361.34375 C16.96275595 359.65205348 16.96275595 359.65205348 14 360 C13.67 359.34 13.34 358.68 13 358 C10.97536745 357.34786708 10.97536745 357.34786708 9 357 C9 356.34 9 355.68 9 355 C8.12859375 354.89429688 7.2571875 354.78859375 6.359375 354.6796875 C2.84995769 353.9696426 0.36971663 352.85721835 -2.75 351.125 C-3.69359375 350.61195313 -4.6371875 350.09890625 -5.609375 349.5703125 C-8 348 -8 348 -10 345 C-12.05925139 344.27617533 -12.05925139 344.27617533 -14 344 C-14 343.34 -14 342.68 -14 342 C-15.0828125 342.0928125 -15.0828125 342.0928125 -16.1875 342.1875 C-19.64975649 341.9566829 -21.04658942 340.83371096 -24 339 C-26.75270646 337.48664156 -29.53335458 336.02662323 -32.3125 334.5625 C-33.03373047 334.18029297 -33.75496094 333.79808594 -34.49804688 333.40429688 C-38.72678207 331.17046277 -42.9784719 329.00472878 -47.28686523 326.92822266 C-49.76065126 325.58785862 -51.81443114 323.76059714 -54 322 C-56.18214568 321.22166466 -56.18214568 321.22166466 -58 321 C-58 320.34 -58 319.68 -58 319 C-58.9075 318.896875 -59.815 318.79375 -60.75 318.6875 C-64.12126226 317.97434837 -65.38207449 317.11123025 -68 315 C-69.65816784 314.31246699 -71.32459336 313.64438717 -73 313 C-73.99 312.34 -74.98 311.68 -76 311 C-76 310.34 -76 309.68 -76 309 C-76.886875 308.9175 -77.77375 308.835 -78.6875 308.75 C-82.45061603 307.89797373 -84.08826132 306.45199047 -87 304 C-89.18214568 303.22166466 -89.18214568 303.22166466 -91 303 C-91 302.34 -91 301.68 -91 301 C-91.763125 300.87625 -92.52625 300.7525 -93.3125 300.625 C-96 300 -96 300 -99 298 C-99 297.34 -99 296.68 -99 296 C-99.70125 295.896875 -100.4025 295.79375 -101.125 295.6875 C-104.41057396 294.90181927 -107.02288928 293.58356953 -110 292 C-110.78375 291.608125 -111.5675 291.21625 -112.375 290.8125 C-112.91125 290.544375 -113.4475 290.27625 -114 290 C-114 289.34 -114 288.68 -114 288 C-114.66 288 -115.32 288 -116 288 C-116 286.35 -116 284.7 -116 283 C-114.02 283 -112.04 283 -110 283 C-110 282.34 -110 281.68 -110 281 C-109.01 281 -108.02 281 -107 281 C-106.67 280.01 -106.34 279.02 -106 278 C-103.75 276.9375 -103.75 276.9375 -101 276 C-97.14035668 274.57881022 -97.14035668 274.57881022 -94 272 C-92.34302621 271.30959426 -90.6744239 270.6469365 -89 270 C-84.74478226 268.32137418 -84.74478226 268.32137418 -82 265 C-80.1796875 264.0703125 -80.1796875 264.0703125 -77.875 263.125 C-70.38467983 259.93461902 -70.38467983 259.93461902 -64 255 C-61.94185004 254.39391903 -59.87952543 253.98825831 -57.77734375 253.5625 C-57.19082031 253.376875 -56.60429687 253.19125 -56 253 C-55.67 252.34 -55.34 251.68 -55 251 C-53.452495 249.945404 -51.86167327 248.95365282 -50.25 248 C-49.38890625 247.484375 -48.5278125 246.96875 -47.640625 246.4375 C-45.14011684 245.07627663 -42.64150911 244.04960627 -40 243 C-39.01 242.34 -38.02 241.68 -37 241 C-36.34 241.33 -35.68 241.66 -35 242 C-35 241.34 -35 240.68 -35 240 C-34.34 240 -33.68 240 -33 240 C-32.67 239.34 -32.34 238.68 -32 238 C-29.71984139 236.87746038 -27.38638333 235.95397806 -25.03125 235 C-22.83439745 234.17290051 -22.83439745 234.17290051 -22 232 C-18.7331874 230.45733849 -15.55234558 229.60897353 -12 229 C-12 228.34 -12 227.68 -12 227 C-11.401875 226.896875 -10.80375 226.79375 -10.1875 226.6875 C-7.71756736 225.91123545 -6.67748765 224.92911079 -5 223 C-4.01 223.33 -3.02 223.66 -2 224 C-2 223.34 -2 222.68 -2 222 C1.96124704 219.66985468 5.73223885 217.70710446 10 216 C10.66 215.34 11.32 214.68 12 214 C13.32 214 14.64 214 16 214 C16 213.34 16 212.68 16 212 C16.66 212 17.32 212 18 212 C18.33 211.34 18.66 210.68 19 210 C19.66 210.33 20.32 210.66 21 211 C21 210.34 21 209.68 21 209 C22.65 209 24.3 209 26 209 C26.33 208.01 26.66 207.02 27 206 C27.66 205.67 28.32 205.34 29 205 C29.66 205.33 30.32 205.66 31 206 C31 205.34 31 204.68 31 204 C33.95481492 201.25624329 34.77471908 201 39 201 C39 200.34 39 199.68 39 199 C39.66 198.7525 40.32 198.505 41 198.25 C44.17472375 196.92719844 47.18584317 195.39976859 50.23046875 193.8046875 C52 193 52 193 54 193 C54 192.34 54 191.68 54 191 C55.65 191 57.3 191 59 191 C59.33 190.01 59.66 189.02 60 188 C61.6015625 186.97265625 61.6015625 186.97265625 63.625 186.0625 C70.24852775 183.1823483 70.24852775 183.1823483 76 179 C76 178.67 76 178.34 76 178 C76.63808594 177.89042969 77.27617188 177.78085937 77.93359375 177.66796875 C78.75988281 177.50941406 79.58617187 177.35085938 80.4375 177.1875 C81.67306641 176.96126953 81.67306641 176.96126953 82.93359375 176.73046875 C83.95646484 176.36888672 83.95646484 176.36888672 85 176 C85.33 175.01 85.66 174.02 86 173 C87.32 173 88.64 173 90 173 C90 172.34 90 171.68 90 171 C90.99 170.67 91.98 170.34 93 170 C93.66 170.33 94.32 170.66 95 171 C95.33 170.01 95.66 169.02 96 168 C97.64551962 167.28272222 99.31422289 166.61674772 101 166 C101.66 165.34 102.32 164.68 103 164 C103.99 164.33 104.98 164.66 106 165 C106 164.34 106 163.68 106 163 C106.598125 162.71125 107.19625 162.4225 107.8125 162.125 C110.19327792 160.95257974 110.19327792 160.95257974 113 159 C117.98717793 159.89769203 121.88994257 161.90300152 126.24609375 164.42578125 C129.81193698 166.46412851 133.43476538 168.38707559 137.0625 170.3125 C137.74248047 170.67424316 138.42246094 171.03598633 139.12304688 171.40869141 C140.74830532 172.27319941 142.37409584 173.13670701 144 174 C144 174.66 144 175.32 144 176 C144.67675781 176.0928125 145.35351562 176.185625 146.05078125 176.28125 C149.71336328 177.17385277 152.8656712 178.77139943 156.1875 180.5 C156.81591797 180.82097656 157.44433594 181.14195312 158.09179688 181.47265625 C159.73032006 182.31031837 161.36539031 183.15472655 163 184 C163.66 184.33 164.32 184.66 165 185 C165 185.66 165 186.32 165 187 C166.0828125 187.1546875 166.0828125 187.1546875 167.1875 187.3125 C170.30715348 188.07508196 172.27615226 189.30647728 175 191 C176.97681032 192.17065484 178.9560824 193.33716033 180.9375 194.5 C181.93652344 195.0878125 182.93554688 195.675625 183.96484375 196.28125 C187.85431761 198.48378346 191.84324299 200.43584392 195.859375 202.39453125 C203.30129434 206.04509439 210.35488433 210.12048295 217.39453125 214.484375 C221.3000592 216.75625633 225.38060571 218.64582688 229.453125 220.59765625 C232 222 232 222 233 224 C235.52733235 224.65555119 235.52733235 224.65555119 238 225 C238 225.66 238 226.32 238 227 C238.74378906 227.12246094 239.48757813 227.24492188 240.25390625 227.37109375 C242.88332223 227.97327863 244.62705615 228.71283478 246.9375 230.0625 C247.70578125 230.50464844 248.4740625 230.94679688 249.265625 231.40234375 C250.61914062 232.19318359 250.61914062 232.19318359 252 233 C253.77710322 234.02425955 255.55616909 235.04501393 257.33618164 236.06420898 C258.54244299 236.75538735 259.74742709 237.44880112 260.95092773 238.14477539 C263.58472726 239.66034296 266.22706359 241.1135318 268.9453125 242.47265625 C272.59876712 244.29938356 276.13689717 246.29511203 279.6875 248.3125 C281.11301803 249.1176537 282.53880006 249.92234018 283.96484375 250.7265625 C284.65562012 251.11618164 285.34639648 251.50580078 286.05810547 251.90722656 C293.36504744 256.01910389 300.7414582 259.92068642 308.2734375 263.60546875 C310.93040062 264.96440261 313.45683763 266.43987535 316 268 C323.83996848 272.69942958 331.78433536 276.99572648 340 281 C342.00093197 281.99813389 344.00118064 282.99764221 346 284 C346 284.66 346 285.32 346 286 C346.66 286 347.32 286 348 286 C348 327.91 348 369.82 348 413 C348.66 413 349.32 413 350 413 C350 413.66 350 414.32 350 415 C364.02969006 414.89279748 378.05932526 414.77997806 392.08891773 414.66066074 C398.60296227 414.60542564 405.11701129 414.55200462 411.63110352 414.50268555 C417.91401336 414.45505077 424.19686774 414.40270817 430.47971153 414.34705925 C432.88034375 414.3266317 435.28099118 414.30791929 437.68165016 414.29092598 C441.03627665 414.26689096 444.39079794 414.23683496 447.74536133 414.20532227 C448.74445526 414.1995668 449.74354919 414.19381134 450.7729187 414.18788147 C452.14219765 414.17319824 452.14219765 414.17319824 453.53913879 414.15821838 C454.33280255 414.15176583 455.12646631 414.14531328 455.94418049 414.1386652 C458.20005927 414.07312867 458.20005927 414.07312867 461 413 C461 291.23 461 169.46 461 44 C322.73 44 184.46 44 42 44 C41.67 87.23 41.34 130.46 41 175 C27.14 175 13.28 175 -1 175 C-1.17554499 152.47820287 -1.34280353 129.95639468 -1.49477577 107.43442726 C-1.56560313 96.97772106 -1.64020991 86.52106705 -1.72363281 76.06445312 C-1.79631209 66.9533047 -1.86198301 57.84213773 -1.91914403 48.73087823 C-1.94967366 43.9039795 -1.98377632 39.07716428 -2.02626419 34.25035477 C-2.06610694 29.71148474 -2.09661141 25.17264975 -2.11981392 20.63366508 C-2.1300214 18.96387046 -2.1437021 17.29409308 -2.16103554 15.62435722 C-2.18411325 13.35226655 -2.19492578 11.08044525 -2.20254517 8.80825806 C-2.2117631 7.53434015 -2.22098103 6.26042225 -2.23047829 4.94790077 C-2 2 -2 2 0 0 Z M43 42 C43 42.33 43 42.66 43 43 C180.94 43 318.88 43 461 43 C461 42.67 461 42.34 461 42 C323.06 42 185.12 42 43 42 Z M193 368 C192.67 368.99 192.34 369.98 192 371 C192.99 371 193.98 371 195 371 C195 370.01 195 369.02 195 368 C194.34 368 193.68 368 193 368 Z M165 383 C164.67 383.99 164.34 384.98 164 386 C164.99 386 165.98 386 167 386 C167 385.01 167 384.02 167 383 C166.34 383 165.68 383 165 383 Z " fill="#17418E" transform="translate(447,305)"/>
<path d="M0 0 C0.99 0.33 1.98 0.66 3 1 C3.04627011 12.04806431 3.08184204 23.09610571 3.10362434 34.14424706 C3.11407693 39.27393381 3.12826293 44.40355444 3.15087891 49.53320312 C3.17255483 54.48040037 3.18455751 59.42753388 3.18975449 64.37477493 C3.19345971 66.26548898 3.20069473 68.15619941 3.21146011 70.04688644 C3.22590533 72.68807357 3.22798088 75.3289948 3.22705078 77.97021484 C3.23424133 78.75783707 3.24143188 79.54545929 3.24884033 80.35694885 C3.22810432 85.77189568 3.22810432 85.77189568 1 88 C0.21625 88.12375 -0.5675 88.2475 -1.375 88.375 C-4.63356472 89.15084874 -5.70611784 90.63212164 -8 93 C-10.1875 93.625 -10.1875 93.625 -12 94 C-12.33 94.66 -12.66 95.32 -13 96 C-16.45329726 97.72664863 -19.15830842 98.21952523 -23 98 C-23 98.99 -23 99.98 -23 101 C-23.61875 101.103125 -24.2375 101.20625 -24.875 101.3125 C-27.36526484 101.87525373 -27.36526484 101.87525373 -29 105 C-32.125 105.6875 -32.125 105.6875 -35 106 C-35 106.66 -35 107.32 -35 108 C-38.05263664 108.98120464 -39.94736336 108.98120464 -43 108 C-42.01 109.485 -42.01 109.485 -41 111 C-42.65 111 -44.3 111 -46 111 C-46 111.99 -46 112.98 -46 114 C-47.19625 114.391875 -48.3925 114.78375 -49.625 115.1875 C-52.70324934 116.31329084 -54.8412243 117.53269109 -57.25 119.75 C-60 122 -60 122 -62.375 121.8125 C-62.91125 121.544375 -63.4475 121.27625 -64 121 C-64.33 121.99 -64.66 122.98 -65 124 C-66.32 124 -67.64 124 -69 124 C-69.33 124.99 -69.66 125.98 -70 127 C-73.00791911 129.04108797 -75.42195344 129.19878036 -79 129 C-79 129.99 -79 130.98 -79 132 C-80.11375 132.4021875 -80.11375 132.4021875 -81.25 132.8125 C-83.90320319 133.95820138 -85.71193838 135.26661999 -88 137 C-89.99180409 138.01622658 -91.99152635 139.01712992 -94 140 C-94.99 140.66 -95.98 141.32 -97 142 C-99.6875 142.125 -99.6875 142.125 -102 142 C-102 142.99 -102 143.98 -102 145 C-102.556875 145.0825 -103.11375 145.165 -103.6875 145.25 C-106.18663349 145.90510666 -106.18663349 145.90510666 -108.4375 148 C-111.18946812 150.14787755 -112.66878344 150.33375669 -116 151 C-116.845625 151.680625 -117.69125 152.36125 -118.5625 153.0625 C-121 155 -121 155 -125 155 C-125 155.66 -125 156.32 -125 157 C-127.44111325 158.67390623 -129.80478747 159.9238195 -132.5625 161 C-135.05995941 161.89435051 -135.05995941 161.89435051 -137.0625 163.625 C-139 165 -139 165 -143 165 C-143 165.66 -143 166.32 -143 167 C-144.32 167 -145.64 167 -147 167 C-147 166.34 -147 165.68 -147 165 C-148.98567708 164.8046875 -150.97135417 164.609375 -152.95703125 164.4140625 C-155 164 -155 164 -158 162 C-158 161.34 -158 160.68 -158 160 C-158.66 159.938125 -159.32 159.87625 -160 159.8125 C-163.51909338 158.85941221 -166.01800713 157.25538141 -169.03515625 155.25390625 C-172.07343754 153.31496332 -175.16475211 151.93233396 -178.5 150.5625 C-181.45844571 149.24176531 -183.47135627 147.93862686 -186 146 C-187.64797236 145.28837557 -189.31165408 144.60968047 -191 144 C-191 143.34 -191 142.68 -191 142 C-192.1446875 141.8453125 -192.1446875 141.8453125 -193.3125 141.6875 C-196.29123061 140.92549915 -196.9368354 140.14912979 -199 138 C-200.64991582 137.29289322 -202.3207762 136.63437344 -204 136 C-211.52997722 132.48372362 -219.08591411 128.60939059 -226 124 C-227.99212671 122.98440599 -229.9911515 121.98210371 -232 121 C-232 120.34 -232 119.68 -232 119 C-233.02673828 118.86271484 -233.02673828 118.86271484 -234.07421875 118.72265625 C-237.70056363 117.82696359 -240.55047308 116.24973718 -243.8125 114.4375 C-244.40998047 114.10814453 -245.00746094 113.77878906 -245.62304688 113.43945312 C-247.08533998 112.63226733 -248.5431399 111.81695083 -250 111 C-250 110.34 -250 109.68 -250 109 C-250.9075 108.896875 -251.815 108.79375 -252.75 108.6875 C-256.12126226 107.97434837 -257.38207449 107.11123025 -260 105 C-261.64797236 104.28837557 -263.31165408 103.60968047 -265 103 C-265 102.34 -265 101.68 -265 101 C-266.1446875 100.814375 -266.1446875 100.814375 -267.3125 100.625 C-270 100 -270 100 -273 98 C-273 97.34 -273 96.68 -273 96 C-274.65 96 -276.3 96 -278 96 C-278.33 95.34 -278.66 94.68 -279 94 C-281.02463255 93.34786708 -281.02463255 93.34786708 -283 93 C-283 92.34 -283 91.68 -283 91 C-284.3921875 90.814375 -284.3921875 90.814375 -285.8125 90.625 C-289 90 -289 90 -292 88 C-292.66 87.67 -293.32 87.34 -294 87 C-294 58.95 -294 30.9 -294 2 C-290 1 -290 1 -287.0625 2.75 C-286.051875 3.4925 -285.04125 4.235 -284 5 C-282.34051852 6.01187895 -280.67419438 7.0126546 -279 8 C-277.88625 8.7115625 -277.88625 8.7115625 -276.75 9.4375 C-274.52170605 10.70357611 -272.4131801 11.69682521 -270.0625 12.6875 C-262.55454935 15.94304835 -255.48368705 20.24623945 -248.51953125 24.5234375 C-245.39779551 26.35291984 -242.18075754 27.96322666 -238.9375 29.5625 C-238.32583984 29.86607422 -237.71417969 30.16964844 -237.08398438 30.48242188 C-235.39000951 31.32299967 -233.6950397 32.16157154 -232 33 C-230.66623877 33.66581018 -229.332668 34.33200432 -228 35 C-228 35.66 -228 36.32 -228 37 C-226.906875 37.103125 -225.81375 37.20625 -224.6875 37.3125 C-220.70390086 38.05520492 -220.5924487 38.34354022 -218 41 C-216.363972 41.93102909 -214.6936237 42.80339088 -213 43.625 C-212.13375 44.05039062 -211.2675 44.47578125 -210.375 44.9140625 C-207.93359488 46.08152423 -207.93359488 46.08152423 -205 47 C-203.99455692 47.99452713 -202.99485546 48.99488179 -202 50 C-200.27812882 51.02181375 -200.27812882 51.02181375 -198.38671875 51.8671875 C-192.93476122 54.48781744 -187.70864476 57.48440933 -182.44726562 60.46484375 C-178.70159738 62.56800947 -175.06032655 64.551627 -171 66 C-171 66.66 -171 67.32 -171 68 C-170.27167969 68.11214844 -169.54335938 68.22429687 -168.79296875 68.33984375 C-165.88755705 69.02657742 -163.86672794 70.04037095 -161.3125 71.5625 C-158.34778023 73.46315966 -158.34778023 73.46315966 -155 74 C-155 74.66 -155 75.32 -155 76 C-154.2575 76.28875 -153.515 76.5775 -152.75 76.875 C-150 78 -150 78 -148 79.3125 C-147.34 79.539375 -146.68 79.76625 -146 80 C-143.35774595 78.68134288 -143.35774595 78.68134288 -141 77 C-140.34 77 -139.68 77 -139 77 C-138.34 76.34 -137.68 75.68 -137 75 C-135 73 -135 73 -132.375 72.875 C-131.59125 72.91625 -130.8075 72.9575 -130 73 C-130 72.34 -130 71.68 -130 71 C-129.34 71 -128.68 71 -128 71 C-127.67 70.34 -127.34 69.68 -127 69 C-124.67843403 68.59270772 -122.3431213 68.25561323 -120 68 C-119.67 67.01 -119.34 66.02 -119 65 C-116.66666667 64.33333333 -114.33333333 63.66666667 -112 63 C-111.67 62.01 -111.34 61.02 -111 60 C-108.78515625 58.90234375 -108.78515625 58.90234375 -106.0625 57.9375 C-102.16220589 56.57167745 -102.16220589 56.57167745 -99 54 C-96.375 53.375 -96.375 53.375 -94 53 C-93.67 52.01 -93.34 51.02 -93 50 C-91.02 50 -89.04 50 -87 50 C-86.67 49.01 -86.34 48.02 -86 47 C-82.08968731 44.35048907 -77.69056641 42.5863208 -73 42 C-72.67 41.01 -72.34 40.02 -72 39 C-71.01 38.67 -70.02 38.34 -69 38 C-69 37.67 -69 37.34 -69 37 C-68.43410156 36.89042969 -67.86820313 36.78085937 -67.28515625 36.66796875 C-66.55167969 36.50941406 -65.81820312 36.35085938 -65.0625 36.1875 C-64.33160156 36.03667969 -63.60070312 35.88585937 -62.84765625 35.73046875 C-62.23792969 35.48941406 -61.62820313 35.24835937 -61 35 C-60.67 34.01 -60.34 33.02 -60 32 C-58.35965807 31.27095914 -56.68698082 30.61344757 -55 30 C-54.175 29.505 -53.35 29.01 -52.5 28.5 C-48.47157262 26.08294357 -44.61988924 24.79198101 -40 24 C-40 23.34 -40 22.68 -40 22 C-36 20 -36 20 -34.16796875 19.1171875 C-30.84698453 17.40583347 -27.71147611 15.40122171 -24.53515625 13.4375 C-22.07518454 12.0426316 -19.62500645 11.03789382 -17 10 C-15.515 9.01 -15.515 9.01 -14 8 C-13.34 8.33 -12.68 8.66 -12 9 C-11.67 8.01 -11.34 7.02 -11 6 C-10.34 5.67 -9.68 5.34 -9 5 C-8.34 5.33 -7.68 5.66 -7 6 C-7 5.34 -7 4.68 -7 4 C-6.401875 3.71125 -5.80375 3.4225 -5.1875 3.125 C-2.80672208 1.95257974 -2.80672208 1.95257974 0 0 Z M-94 135 C-94 135.99 -94 136.98 -94 138 C-91.83333333 137.16666667 -91.83333333 137.16666667 -91 135 C-91.99 135 -92.98 135 -94 135 Z " fill="#17418F" transform="translate(708,679)"/>
<path d="M0 0 C0.33 0 0.66 0 1 0 C1 39.6 1 79.2 1 120 C0.67 120 0.34 120 0 120 C0 80.4 0 40.8 0 0 Z " fill="#184290" transform="translate(444,331)"/>
<path d="M0 0 C34.65 0 69.3 0 105 0 C105 0.33 105 0.66 105 1 C70.35 1 35.7 1 0 1 C0 0.67 0 0.34 0 0 Z " fill="#184290" transform="translate(799,718)"/>
<path d="M0 0 C0.33 0 0.66 0 1 0 C1 24.42 1 48.84 1 74 C0.67 74 0.34 74 0 74 C0 49.58 0 25.16 0 0 Z " fill="#000002" transform="translate(711,687)"/>
<path d="M0 0 C13.2 0 26.4 0 40 0 C40 0.33 40 0.66 40 1 C26.8 1 13.6 1 0 1 C0 0.67 0 0.34 0 0 Z " fill="#000002" transform="translate(447,481)"/>
<path d="M0 0 C0.33 0 0.66 0 1 0 C1 2.97 1 5.94 1 9 C0.67 9 0.34 9 0 9 C0 6.03 0 3.06 0 0 Z " fill="#184290" transform="translate(444,453)"/>
<path d="M0 0 C0.33 0 0.66 0 1 0 C1 2.97 1 5.94 1 9 C0.67 9 0.34 9 0 9 C0 6.03 0 3.06 0 0 Z " fill="#184290" transform="translate(444,320)"/>
<path d="M0 0 C0.33 0 0.66 0 1 0 C1 1.98 1 3.96 1 6 C0.67 6 0.34 6 0 6 C0 4.02 0 2.04 0 0 Z " fill="#184290" transform="translate(444,464)"/>
<path d="M0 0 C0.33 0 0.66 0 1 0 C1 1.65 1 3.3 1 5 C0.67 5 0.34 5 0 5 C0 3.35 0 1.7 0 0 Z " fill="#184290" transform="translate(444,313)"/>
<path d="M0 0 C0.99 0 1.98 0 3 0 C2.67 0.66 2.34 1.32 2 2 C1.34 1.34 0.68 0.68 0 0 Z " fill="#061025" transform="translate(665,787)"/>
<path d="M0 0 C3 1 3 1 3 1 Z " fill="#000002" transform="translate(757,762)"/>
<path d="M0 0 C3 1 3 1 3 1 Z " fill="#000002" transform="translate(434,650)"/>
<path d="" fill="#184290" transform="translate(0,0)"/>
<path d="M0 0 C2 1 2 1 2 1 Z " fill="#000002" transform="translate(630,809)"/>
<path d="M0 0 C2 1 2 1 2 1 Z " fill="#000002" transform="translate(645,801)"/>
<path d="M0 0 C2 1 2 1 2 1 Z " fill="#000002" transform="translate(654,796)"/>
<path d="M0 0 C2 1 2 1 2 1 Z " fill="#000002" transform="translate(663,791)"/>
<path d="M0 0 C2 1 2 1 2 1 Z " fill="#000002" transform="translate(686,778)"/>
<path d="M0 0 C2 1 2 1 2 1 Z " fill="#000002" transform="translate(704,768)"/>
<path d="M0 0 C2 1 2 1 2 1 Z " fill="#000002" transform="translate(589,704)"/>
<path d="M0 0 C2 1 2 1 2 1 Z " fill="#000002" transform="translate(519,696)"/>
<path d="M0 0 C2 1 2 1 2 1 Z " fill="#000002" transform="translate(622,686)"/>
<path d="M0 0 C2 1 2 1 2 1 Z " fill="#000002" transform="translate(646,673)"/>
<path d="M0 0 C2 1 2 1 2 1 Z " fill="#000002" transform="translate(656,668)"/>
<path d="M0 0 C2 1 2 1 2 1 Z " fill="#000002" transform="translate(707,640)"/>
<path d="M0 0 C2 1 2 1 2 1 Z " fill="#000002" transform="translate(731,627)"/>
<path d="" fill="#000002" transform="translate(0,0)"/>
<path d="" fill="#000002" transform="translate(0,0)"/>
<path d="" fill="#000002" transform="translate(0,0)"/>
<path d="" fill="#000002" transform="translate(0,0)"/>
<path d="" fill="#000002" transform="translate(0,0)"/>
<path d="" fill="#000002" transform="translate(0,0)"/>
<path d="" fill="#000002" transform="translate(0,0)"/>
<path d="" fill="#000002" transform="translate(0,0)"/>
<path d="" fill="#000002" transform="translate(0,0)"/>
<path d="" fill="#000002" transform="translate(0,0)"/>
<path d="" fill="#000002" transform="translate(0,0)"/>
<path d="" fill="#000002" transform="translate(0,0)"/>
<path d="" fill="#000002" transform="translate(0,0)"/>
<path d="" fill="#000002" transform="translate(0,0)"/>
<path d="" fill="#000002" transform="translate(0,0)"/>
<path d="" fill="#184290" transform="translate(0,0)"/>
<path d="" fill="#184290" transform="translate(0,0)"/>
<path d="" fill="#000002" transform="translate(0,0)"/>
<path d="" fill="#184290" transform="translate(0,0)"/>
<path d="" fill="#000002" transform="translate(0,0)"/>
<path d="" fill="#000002" transform="translate(0,0)"/>
<path d="" fill="#000002" transform="translate(0,0)"/>
<path d="" fill="#000002" transform="translate(0,0)"/>
<path d="" fill="#000002" transform="translate(0,0)"/>
<path d="" fill="#000002" transform="translate(0,0)"/>
<path d="" fill="#000002" transform="translate(0,0)"/>
<path d="" fill="#184290" transform="translate(0,0)"/>
<path d="" fill="#000002" transform="translate(0,0)"/>
<path d="" fill="#000002" transform="translate(0,0)"/>
<path d="" fill="#000002" transform="translate(0,0)"/>
<path d="" fill="#000002" transform="translate(0,0)"/>
<path d="" fill="#000002" transform="translate(0,0)"/>
<path d="" fill="#184290" transform="translate(0,0)"/>
<path d="" fill="#000002" transform="translate(0,0)"/>
<path d="" fill="#000002" transform="translate(0,0)"/>
<path d="" fill="#000002" transform="translate(0,0)"/>
<path d="" fill="#000002" transform="translate(0,0)"/>
<path d="" fill="#000002" transform="translate(0,0)"/>
<path d="" fill="#000002" transform="translate(0,0)"/>
<path d="" fill="#000002" transform="translate(0,0)"/>
<path d="" fill="#000002" transform="translate(0,0)"/>
<path d="" fill="#000002" transform="translate(0,0)"/>
<path d="" fill="#000002" transform="translate(0,0)"/>
<path d="" fill="#000002" transform="translate(0,0)"/>
<path d="" fill="#000002" transform="translate(0,0)"/>
<path d="" fill="#000002" transform="translate(0,0)"/>
<path d="" fill="#000002" transform="translate(0,0)"/>
<path d="" fill="#000002" transform="translate(0,0)"/>
<path d="" fill="#000002" transform="translate(0,0)"/>
<path d="" fill="#000002" transform="translate(0,0)"/>
<path d="" fill="#000002" transform="translate(0,0)"/>
<path d="" fill="#000002" transform="translate(0,0)"/>
<path d="" fill="#000002" transform="translate(0,0)"/>
<path d="" fill="#000002" transform="translate(0,0)"/>
<path d="" fill="#000002" transform="translate(0,0)"/>
<path d="" fill="#000002" transform="translate(0,0)"/>
<path d="" fill="#000002" transform="translate(0,0)"/>
<path d="" fill="#184290" transform="translate(0,0)"/>
<path d="" fill="#184290" transform="translate(0,0)"/>
<path d="" fill="#184290" transform="translate(0,0)"/>
<path d="" fill="#184290" transform="translate(0,0)"/>
<path d="" fill="#184290" transform="translate(0,0)"/>
<path d="" fill="#184290" transform="translate(0,0)"/>
<path d="" fill="#184290" transform="translate(0,0)"/>
<path d="" fill="#184290" transform="translate(0,0)"/>
<path d="" fill="#184290" transform="translate(0,0)"/>
<path d="" fill="#000002" transform="translate(0,0)"/>
<path d="" fill="#184290" transform="translate(0,0)"/>
<path d="" fill="#184290" transform="translate(0,0)"/>
<path d="" fill="#000002" transform="translate(0,0)"/>
<path d="" fill="#000002" transform="translate(0,0)"/>
<path d="" fill="#184290" transform="translate(0,0)"/>
<path d="" fill="#184290" transform="translate(0,0)"/>
</svg>
